<svg version="1" xmlns="http://www.w3.org/2000/svg" width="624" height="692" viewBox="0 0 468 519"><path d="M415.8 130.56c-120.96 41.4-287.28 78.84-388.44 88.2C12.24 220.2 0 222.36 0 223.44c0 1.08 19.8 12.24 44.28 24.48 88.92 45.36 178.92 108 254.88 178.2 19.08 17.28 35.64 31.68 37.08 31.68 2.52 0-7.92-27.36-15.48-39.6-2.88-5.04-15.48-18.72-27.36-30.6-55.08-54-118.44-97.2-200.88-137.16C54.36 232.08 52.92 231 66.6 231c7.92 0 44.28-3.96 81-8.64 67.32-8.64 116.28-19.44 165.6-36.36 28.08-9.72 28.44-9.36 5.4 7.2-7.92 5.76-24.48 18.36-36.72 28.08l-22.32 18 9.72 11.88c5.4 6.84 10.8 12.24 11.88 12.24 2.88 0 32.04-25.56 68.04-59.76 38.16-36 63-55.44 91.8-71.28 41.4-23.04 38.16-23.4-25.2-1.8z" fill="#c9252b"/><linearGradient y2=".102" x2=".746" y1=".156" x1=".117" id="a"><stop stop-opacity=".88" stop-color="#c62f2f" offset="0"/><stop stop-color="#6b6359" offset="1"/></linearGradient><path d="M600 497c0-42 3-46 63-93 34-27 108-90 164-141 55-51 104-93 107-93 7 0-23 77-43 110-28 46-152 163-238 224l-53 38v-45z" fill="url(#a)" transform="matrix(.36 0 0 -.36 0 519)"/><path d="M216.36 32.28c-5.76 37.8-24.84 113.76-39.24 155.52-35.64 103.68-93.6 206.28-174.6 308.88C.36 499.56.36 501 3.24 501c2.16 0 29.52-24.84 60.84-55.08 30.96-29.88 71.28-67.68 88.92-83.52 17.64-15.84 37.08-33.48 43.2-38.88 13.68-12.6 55.8-43.56 57.24-41.76.36.72 4.68 11.88 9.36 24.84 4.68 12.96 14.4 36.36 21.6 52.2 34.92 74.88 39.6 84.96 39.6 87.12 0 1.08 8.64 11.16 19.08 22.32 10.08 11.16 24.48 27.36 31.68 36.36 7.56 9 14.4 15.48 15.48 14.04 1.08-1.08-5.4-16.2-14.04-33.48C316.44 366 254.52 176.28 232.2 43.8c-3.6-20.88-7.56-38.88-9-40.32-1.08-1.44-4.32 11.52-6.84 28.8zM230.4 191.4c2.52 14.76 6.84 34.2 9.36 43.2l5.04 16.2-13.32 12.24c-32.04 28.8-51.12 46.44-72.36 66.6l-22.32 21.6 23.04-38.88c27.36-45.36 41.76-78.12 53.28-121.68 4.32-17.28 9-30.24 10.44-28.8 1.08 1.44 4.32 14.76 6.84 29.52z"/></svg>